<?xml version="1.0" encoding="utf-8"?>
<!-- Generator: Adobe Illustrator 26.3.1, SVG Export Plug-In . SVG Version: 6.00 Build 0)  -->
<svg version="1.1" id="Layer_1" xmlns="http://www.w3.org/2000/svg" xmlns:xlink="http://www.w3.org/1999/xlink" x="0px" y="0px"
	 viewBox="0 0 500 500" style="enable-background:new 0 0 500 500;" xml:space="preserve">
<style type="text/css">
	.st0{fill:#FFFFFF;stroke:#000000;stroke-width:5;stroke-linecap:round;stroke-linejoin:round;stroke-miterlimit:10;}
</style>
<g>
	<path class="st0" d="M250,64.8L36.1,435.2h427.8L250,64.8z M238.7,190.9c3.2-3.7,7.1-5.6,11.7-5.6c4.7,0,8.6,1.9,11.8,5.6
		c3.2,3.7,4.8,9.3,4.8,16.7c0,2.4-0.2,5.7-0.7,9.8l-13,118.5h-5.6l-12.9-118.8c-0.6-5.2-0.9-8.8-0.9-10.8
		C233.8,199.8,235.4,194.6,238.7,190.9z M261.7,387.9c-3.2,3.2-7,4.8-11.5,4.8c-4.4,0-8.2-1.6-11.4-4.8c-3.2-3.2-4.8-7-4.8-11.5
		c0-4.5,1.6-8.3,4.8-11.4c3.2-3.1,7-4.7,11.4-4.7c4.5,0,8.3,1.6,11.5,4.7c3.2,3.1,4.8,6.9,4.8,11.4
		C266.5,380.9,264.9,384.7,261.7,387.9z"/>
	<path d="M247.6,335.9h5.6l13-118.5c0.5-4.1,0.7-7.4,0.7-9.8c0-7.4-1.6-13-4.8-16.7c-3.2-3.7-7.1-5.6-11.8-5.6
		c-4.6,0-8.5,1.9-11.7,5.6c-3.2,3.7-4.8,8.8-4.8,15.4c0,2.1,0.3,5.7,0.9,10.8L247.6,335.9z"/>
	<path d="M250.2,360.2c-4.4,0-8.2,1.6-11.4,4.7c-3.2,3.1-4.8,6.9-4.8,11.4c0,4.5,1.6,8.3,4.8,11.5c3.2,3.2,7,4.8,11.4,4.8
		c4.5,0,8.3-1.6,11.5-4.8c3.2-3.2,4.8-7,4.8-11.5c0-4.5-1.6-8.3-4.8-11.4C258.6,361.8,254.7,360.2,250.2,360.2z"/>
</g>
</svg>
