<?xml version="1.0" encoding="utf-8"?>
<!-- Generator: Adobe Illustrator 26.3.1, SVG Export Plug-In . SVG Version: 6.00 Build 0)  -->
<svg version="1.1" id="Layer_1" xmlns="http://www.w3.org/2000/svg" xmlns:xlink="http://www.w3.org/1999/xlink" x="0px" y="0px"
	 viewBox="0 0 600 600" style="enable-background:new 0 0 600 600;" xml:space="preserve">
<style type="text/css">
	.st0{fill:#FFFFFF;}
	.st1{fill:#3576A7;}
	.st2{stroke:#000000;stroke-width:0.7143;stroke-miterlimit:10;}
</style>
<g>
	<polygon class="st0" points="160.3,542 20.6,300 160.3,58 439.7,58 579.4,300 439.7,542 	"/>
	<path class="st1" d="M429.6,75.5L559.2,300L429.6,524.5H170.4L40.8,300L170.4,75.5H429.6 M449.8,40.5H150.2L0.4,300l149.8,259.5
		h299.6L599.6,300L449.8,40.5L449.8,40.5z"/>
</g>
<g>
	<rect x="107.4" y="230.4" width="249.3" height="99.3"/>
	<path d="M356.3,230.7v98.6H107.7v-98.6H356.3 M357,230H107v100h250V230L357,230z"/>
</g>
<path class="st2" d="M104,334.8v20.1h377.5V276c-1.1-9.5-5.1-15.9-11-20.5v-22h11V226c-0.9-7.6-6.4-11.8-14.2-14.2
	c-33.6,0-63.8-26.2-104.8,0v122.8L104,334.8z"/>
<g>
	<rect x="409.4" y="230.4" class="st0" width="55.2" height="28.2"/>
	<path d="M464.2,230.8v27.4h-54.4v-27.4H464.2 M465,230h-56v29h56V230L465,230z"/>
</g>
<g>
	<circle cx="167.5" cy="354.5" r="19.5"/>
	<path class="st0" d="M167.5,336c10.2,0,18.5,8.3,18.5,18.5s-8.3,18.5-18.5,18.5s-18.5-8.3-18.5-18.5S157.3,336,167.5,336
		 M167.5,334c-11.3,0-20.5,9.2-20.5,20.5s9.2,20.5,20.5,20.5s20.5-9.2,20.5-20.5S178.8,334,167.5,334L167.5,334z"/>
</g>
<g>
	<circle cx="228.5" cy="354.5" r="19.5"/>
	<path class="st0" d="M228.5,336c10.2,0,18.5,8.3,18.5,18.5s-8.3,18.5-18.5,18.5s-18.5-8.3-18.5-18.5S218.3,336,228.5,336
		 M228.5,334c-11.3,0-20.5,9.2-20.5,20.5s9.2,20.5,20.5,20.5s20.5-9.2,20.5-20.5S239.8,334,228.5,334L228.5,334z"/>
</g>
<g>
	<circle cx="416.5" cy="354.5" r="19.5"/>
	<path class="st0" d="M416.5,336c10.2,0,18.5,8.3,18.5,18.5s-8.3,18.5-18.5,18.5s-18.5-8.3-18.5-18.5S406.3,336,416.5,336
		 M416.5,334c-11.3,0-20.5,9.2-20.5,20.5s9.2,20.5,20.5,20.5s20.5-9.2,20.5-20.5S427.8,334,416.5,334L416.5,334z"/>
</g>
<polygon points="331.8,354.2 381.7,354.2 372.9,362.9 339.1,362.9 "/>
<polygon points="277.2,354.4 327.2,354.4 318.4,363.1 284.6,363.1 "/>
<rect x="461" y="315" class="st0" width="17" height="5"/>
</svg>
