<?xml version="1.0" encoding="utf-8"?>
<!-- Generator: Adobe Illustrator 26.3.1, SVG Export Plug-In . SVG Version: 6.00 Build 0)  -->
<svg version="1.1" id="Layer_1" xmlns="http://www.w3.org/2000/svg" xmlns:xlink="http://www.w3.org/1999/xlink" x="0px" y="0px"
	 viewBox="0 0 600 600" style="enable-background:new 0 0 600 600;" xml:space="preserve">
<style type="text/css">
	.st0{fill:#FFFFFF;}
	.st1{fill:#35A754;}
</style>
<g>
	<polygon class="st0" points="160.3,542 20.6,300 160.3,58 439.7,58 579.4,300 439.7,542 	"/>
	<path class="st1" d="M429.6,75.5L559.2,300L429.6,524.5H170.4L40.8,300L170.4,75.5H429.6 M449.8,40.5H150.2L0.4,300l149.8,259.5
		h299.6L599.6,300L449.8,40.5L449.8,40.5z"/>
</g>
<path d="M112,329c3.5,42.8,17.5,75.1,42,97h258.9c38.9-24.1,64.3-56.5,76.4-97H112z"/>
<path d="M112,324c1.1-13,4.4-26,10-39h154.2c23.4,9.3,35.2,22.3,35.6,39H112z"/>
<path d="M125.9,257h109.4c17.9,1.8,26.7,11,29.7,25H125.9C120.5,273.7,120.5,265.3,125.9,257z"/>
<path d="M167,261L167,261c-2.8,0-5-2.2-5-5v-76c0-2.8,2.2-5,5-5l0,0c2.8,0,5,2.2,5,5v76C172,258.8,169.8,261,167,261z"/>
<path d="M184,261L184,261c-2.8,0-5-2.2-5-5v-55c0-2.8,2.2-5,5-5l0,0c2.8,0,5,2.2,5,5v55C189,258.8,186.8,261,184,261z"/>
<rect x="326" y="300" width="27" height="27"/>
<rect x="355" y="300" width="27" height="27"/>
<rect x="384" y="300" width="27" height="27"/>
<rect x="413" y="300" width="27" height="27"/>
<rect x="443" y="300" width="27" height="27"/>
<rect x="341" y="271" width="27" height="27"/>
<rect x="371" y="271" width="27" height="27"/>
<rect x="400" y="271" width="27" height="27"/>
<rect x="429" y="271" width="27" height="27"/>
<circle class="st0" cx="442.5" cy="350.5" r="7.5"/>
<circle class="st0" cx="395.5" cy="350.5" r="7.5"/>
<circle class="st0" cx="339.5" cy="350.5" r="7.5"/>
<circle class="st0" cx="277.5" cy="350.5" r="7.5"/>
<circle class="st0" cx="221.5" cy="350.5" r="7.5"/>
<path class="st0" d="M243.5,273h-21c-1.9,0-3.5-1.6-3.5-3.5l0,0c0-1.9,1.6-3.5,3.5-3.5h21c1.9,0,3.5,1.6,3.5,3.5l0,0
	C247,271.4,245.4,273,243.5,273z"/>
<path class="st0" d="M283.5,311h-10c-3.6,0-6.5-2.9-6.5-6.5l0,0c0-3.6,2.9-6.5,6.5-6.5h10c3.6,0,6.5,2.9,6.5,6.5l0,0
	C290,308.1,287.1,311,283.5,311z"/>
<path class="st0" d="M246.5,311h-10c-3.6,0-6.5-2.9-6.5-6.5l0,0c0-3.6,2.9-6.5,6.5-6.5h10c3.6,0,6.5,2.9,6.5,6.5l0,0
	C253,308.1,250.1,311,246.5,311z"/>
<path class="st0" d="M198.5,311h-10c-3.6,0-6.5-2.9-6.5-6.5l0,0c0-3.6,2.9-6.5,6.5-6.5h10c3.6,0,6.5,2.9,6.5,6.5l0,0
	C205,308.1,202.1,311,198.5,311z"/>
<path class="st0" d="M156.5,311h-10c-3.6,0-6.5-2.9-6.5-6.5l0,0c0-3.6,2.9-6.5,6.5-6.5h10c3.6,0,6.5,2.9,6.5,6.5l0,0
	C163,308.1,160.1,311,156.5,311z"/>
</svg>
