<?xml version="1.0" encoding="utf-8"?>
<!-- Generator: Adobe Illustrator 26.3.1, SVG Export Plug-In . SVG Version: 6.00 Build 0)  -->
<svg version="1.1" id="Layer_1" xmlns="http://www.w3.org/2000/svg" xmlns:xlink="http://www.w3.org/1999/xlink" x="0px" y="0px"
	 viewBox="0 0 600 600" style="enable-background:new 0 0 600 600;" xml:space="preserve">
<style type="text/css">
	.st0{fill:#FFFFFF;}
	.st1{fill:#35A754;}
	.st2{fill:#C0C0C0;stroke:#000000;stroke-width:2.4992;stroke-miterlimit:10;}
	.st3{fill:none;stroke:#000000;stroke-width:1.2496;stroke-miterlimit:10;}
	.st4{fill:#C0C0C0;stroke:#000000;stroke-width:2.3547;stroke-miterlimit:10;}
	.st5{fill:none;stroke:#000000;stroke-width:1.1773;stroke-miterlimit:10;}
	.st6{fill:#C0C0C0;stroke:#000000;stroke-width:2.1194;stroke-miterlimit:10;}
	.st7{fill:none;stroke:#000000;stroke-width:1.0597;stroke-miterlimit:10;}
</style>
<g>
	<polygon class="st0" points="160.3,542 20.6,300 160.3,58 439.7,58 579.4,300 439.7,542 	"/>
	<path class="st1" d="M429.6,75.5L559.2,300L429.6,524.5H170.4L40.8,300L170.4,75.5H429.6 M449.8,40.5H150.2L0.4,300l149.8,259.5
		h299.6L599.6,300L449.8,40.5L449.8,40.5z"/>
</g>
<polygon class="st2" points="212.7,249 262.4,221.3 488.1,286.6 508.9,336.8 439,373.9 201.4,302.1 "/>
<line class="st3" x1="439.3" y1="374" x2="441.8" y2="311.6"/>
<line class="st3" x1="488.1" y1="286.6" x2="441.8" y2="311.6"/>
<line class="st3" x1="213.2" y1="249.1" x2="441.8" y2="311.6"/>
<polygon class="st2" points="164.1,274.4 213.9,246.6 439.5,311.9 460.4,362.2 390.5,399.3 152.9,327.5 "/>
<line class="st3" x1="390.8" y1="399.4" x2="393.3" y2="336.9"/>
<line class="st3" x1="439.5" y1="311.9" x2="393.3" y2="336.9"/>
<line class="st3" x1="164.6" y1="274.4" x2="393.3" y2="336.9"/>
<polygon class="st2" points="115.1,300 164.8,272.2 390.5,337.5 411.3,387.8 341.4,424.9 103.8,353.1 "/>
<line class="st3" x1="341.7" y1="425" x2="344.2" y2="362.5"/>
<line class="st3" x1="390.5" y1="337.5" x2="344.2" y2="362.5"/>
<line class="st3" x1="115.5" y1="300" x2="344.2" y2="362.5"/>
<polygon class="st4" points="207.8,202.7 254.1,176.2 464,238.5 483.4,286.5 418.4,321.9 197.4,253.4 "/>
<line class="st5" x1="418.7" y1="322" x2="421" y2="262.4"/>
<line class="st5" x1="464" y1="238.5" x2="421" y2="262.4"/>
<line class="st5" x1="208.3" y1="202.7" x2="421" y2="262.4"/>
<polygon class="st4" points="142.7,238.8 189,212.3 398.9,274.6 418.3,322.6 353.3,358 132.3,289.5 "/>
<line class="st5" x1="353.6" y1="358.1" x2="355.9" y2="298.5"/>
<line class="st5" x1="398.9" y1="274.6" x2="355.9" y2="298.5"/>
<line class="st5" x1="143.2" y1="238.8" x2="355.9" y2="298.5"/>
<polygon class="st6" points="183.6,180.3 226.1,157 418.9,211.9 436.7,254.2 377,285.4 174,225 "/>
<line class="st7" x1="377.3" y1="285.5" x2="379.4" y2="233"/>
<line class="st7" x1="418.9" y1="211.9" x2="379.4" y2="233"/>
<line class="st7" x1="184" y1="180.4" x2="379.4" y2="233"/>
</svg>
