<?xml version="1.0" encoding="utf-8"?>
<!-- Generator: Adobe Illustrator 26.3.1, SVG Export Plug-In . SVG Version: 6.00 Build 0)  -->
<svg version="1.1" id="Layer_1" xmlns="http://www.w3.org/2000/svg" xmlns:xlink="http://www.w3.org/1999/xlink" x="0px" y="0px"
	 viewBox="0 0 600 600" style="enable-background:new 0 0 600 600;" xml:space="preserve">
<style type="text/css">
	.st0{fill:#FFFFFF;}
	.st1{fill:#3576A7;}
	.st2{stroke:#000000;stroke-width:7;stroke-miterlimit:10;}
</style>
<g>
	<polygon class="st0" points="160.3,542 20.6,300 160.3,58 439.7,58 579.4,300 439.7,542 	"/>
	<path class="st1" d="M429.6,75.5L559.2,300L429.6,524.5H170.4L40.8,300L170.4,75.5H429.6 M449.8,40.5H150.2L0.4,300l149.8,259.5
		h299.6L599.6,300L449.8,40.5L449.8,40.5z"/>
</g>
<path class="st2" d="M215,331l27,14c1.1-37.1-8.4-70.6-32-99c-34.2,2.5-67.1,14-99,32l28,15l-25,44l-2.3,8l-0.7,7.3l2,7.7l4,9l29,50
	h17l16-26L215,331z"/>
<path d="M270.2,370c15.7,25.7,11.6,54.7,0,85h-78.3l-4.9-3l-4-3l-4-4l-3-4l-3-4.1l-1-6.9l1.7-6.3l33.5-53.7H270.2z"/>
<path d="M328.8,217.9l-25.6,16.4c31.6,19.5,65.3,28,101.7,21.8c14.9-30.9,21.4-65.1,21.8-101.7l-27,16.7l-25.6-43.7l-5.8-6l-5.9-4.3
	l-7.7-2.1l-9.8-1l-57.8,0.1l-8.5,14.8l14.5,26.8L328.8,217.9z"/>
<path d="M267.4,246.1c-30.1,0.7-53.2-17.3-73.6-42.5l39.1-67.8l5.1-2.8l4.6-2l5.5-1.5l5-0.6l5.1-0.5l6.5,2.6l4.6,4.6l29.8,55.9
	L267.4,246.1z"/>
<path d="M370.8,361.3l-1.4-30.4c-32.7,17.6-56.9,42.6-69.7,77.2c19.3,28.4,45.7,51.1,77.2,69.7l-1-31.7l50.6-0.3l8.1-2l6.6-3
	l5.7-5.6l5.8-8l28.8-50.1l-8.5-14.8l-30.5-0.8L370.8,361.3z"/>
<path d="M377,294.1c14.4-26.4,41.6-37.4,73.6-42.5l39.1,67.8l-0.1,5.8l-0.6,5l-1.5,5.5l-2,4.6l-2.1,4.7l-5.5,4.3l-6.3,1.7l-63.3-2.2
	L377,294.1z"/>
</svg>
