<?xml version="1.0" encoding="utf-8"?>
<!-- Generator: Adobe Illustrator 26.3.1, SVG Export Plug-In . SVG Version: 6.00 Build 0)  -->
<svg version="1.1" id="Layer_1" xmlns="http://www.w3.org/2000/svg" xmlns:xlink="http://www.w3.org/1999/xlink" x="0px" y="0px"
	 viewBox="0 0 600 600" style="enable-background:new 0 0 600 600;" xml:space="preserve">
<style type="text/css">
	.st0{fill:#FFFFFF;}
	.st1{fill:#35A754;}
</style>
<g>
	<polygon class="st0" points="160.3,542 20.6,300 160.3,58 439.7,58 579.4,300 439.7,542 	"/>
	<path class="st1" d="M429.6,75.5L559.2,300L429.6,524.5H170.4L40.8,300L170.4,75.5H429.6 M449.8,40.5H150.2L0.4,300l149.8,259.5
		h299.6L599.6,300L449.8,40.5L449.8,40.5z"/>
</g>
<g>
	<rect x="137.5" y="337.5" width="113" height="113"/>
	<path d="M250,338v112H138V338H250 M251,337H137v114h114V337L251,337z"/>
</g>
<g>
	<rect x="245.5" y="366.5" width="220" height="84"/>
	<path class="st0" d="M465,367v83H246v-83H465 M466,366H245v85h221V366L466,366z"/>
</g>
<g>
	<rect x="163.5" y="191.5" width="35" height="145"/>
	<path d="M198,192v144h-34V192H198 M199,191h-36v146h36V191L199,191z"/>
</g>
<g>
	<rect x="264.5" y="358.5" width="35" height="8"/>
	<path d="M299,359v7h-34v-7H299 M300,358h-36v9h36V358L300,358z"/>
</g>
<g>
	<rect x="315.5" y="358.5" width="35" height="8"/>
	<path d="M350,359v7h-34v-7H350 M351,358h-36v9h36V358L351,358z"/>
</g>
<g>
	<rect x="366.5" y="358.5" width="35" height="8"/>
	<path d="M401,359v7h-34v-7H401 M402,358h-36v9h36V358L402,358z"/>
</g>
<g>
	<rect x="416.5" y="358.5" width="35" height="8"/>
	<path d="M451,359v7h-34v-7H451 M452,358h-36v9h36V358L452,358z"/>
</g>
<g>
	<rect x="264.5" y="402.5" class="st0" width="35" height="8"/>
	<path d="M299,403v7h-34v-7H299 M300,402h-36v9h36V402L300,402z"/>
</g>
<g>
	<rect x="315.5" y="402.5" class="st0" width="35" height="8"/>
	<path d="M350,403v7h-34v-7H350 M351,402h-36v9h36V402L351,402z"/>
</g>
<g>
	<rect x="366.5" y="402.5" class="st0" width="35" height="8"/>
	<path d="M401,403v7h-34v-7H401 M402,402h-36v9h36V402L402,402z"/>
</g>
<g>
	<rect x="416.5" y="402.5" class="st0" width="35" height="8"/>
	<path d="M451,403v7h-34v-7H451 M452,402h-36v9h36V402L452,402z"/>
</g>
<g>
	<rect x="162" y="193" class="st0" width="38" height="3"/>
</g>
<g>
	<rect x="210.4" y="241.4" width="35.2" height="95.2"/>
	<path d="M245.2,241.8v94.4h-34.4v-94.4H245.2 M246,241h-36v96h36V241L246,241z"/>
</g>
<g>
	<rect x="209" y="243" class="st0" width="38" height="3"/>
</g>
<circle cx="228" cy="211" r="20"/>
<circle cx="181" cy="161" r="20"/>
<circle cx="194" cy="144" r="20"/>
<circle cx="214" cy="129" r="20"/>
<circle cx="235" cy="193" r="20"/>
<circle cx="254" cy="181" r="20"/>
<circle cx="205" cy="149" r="20"/>
<circle cx="250" cy="201" r="20"/>
<circle cx="278" cy="169" r="20"/>
<circle cx="302" cy="161" r="20"/>
<circle cx="238" cy="121" r="20"/>
<circle cx="258" cy="125" r="20"/>
<circle cx="270" cy="117" r="20"/>
<g>
	<rect x="170.8" y="394.8" class="st0" width="34.3" height="23.3"/>
	<path d="M204.3,395.7v21.7h-32.7v-21.7H204.3 M206,394h-36v25h36V394L206,394z"/>
</g>
</svg>
