<?xml version="1.0" encoding="utf-8"?>
<!-- Generator: Adobe Illustrator 26.3.1, SVG Export Plug-In . SVG Version: 6.00 Build 0)  -->
<svg version="1.1" id="Layer_1" xmlns="http://www.w3.org/2000/svg" xmlns:xlink="http://www.w3.org/1999/xlink" x="0px" y="0px"
	 viewBox="0 0 600 600" style="enable-background:new 0 0 600 600;" xml:space="preserve">
<style type="text/css">
	.st0{fill:#FFFFFF;}
	.st1{fill:#35A754;}
</style>
<g>
	<polygon class="st0" points="160.3,542 20.6,300 160.3,58 439.7,58 579.4,300 439.7,542 	"/>
	<path class="st1" d="M429.6,75.5L559.2,300L429.6,524.5H170.4L40.8,300L170.4,75.5H429.6 M449.8,40.5H150.2L0.4,300l149.8,259.5
		h299.6L599.6,300L449.8,40.5L449.8,40.5z"/>
</g>
<g>
	<ellipse transform="matrix(0.9732 -0.2298 0.2298 0.9732 -28.7504 73.0206)" cx="299.2" cy="160" rx="45.1" ry="45.1"/>
	<path d="M299.2,115.2c24.7,0,44.7,20.1,44.7,44.7s-20.1,44.7-44.7,44.7c-24.7,0-44.7-20.1-44.7-44.7S274.5,115.2,299.2,115.2
		 M299.2,114.5c-25.1,0-45.5,20.4-45.5,45.5s20.4,45.5,45.5,45.5c25.1,0,45.5-20.4,45.5-45.5S324.3,114.5,299.2,114.5L299.2,114.5z"
		/>
</g>
<g>
	<path d="M285.3,312.3c-19.5,0-35.4-15.9-35.4-35.4v-18.9c0-19.5,15.9-35.4,35.4-35.4h27.7c19.5,0,35.4,15.9,35.4,35.4V277
		c0,19.5-15.9,35.4-35.4,35.4H285.3z"/>
	<path d="M313.1,238.2c10.8,0,19.9,9.1,19.9,19.9V277c0,10.8-9.1,19.9-19.9,19.9h-27.7c-10.8,0-19.9-9.1-19.9-19.9v-18.9
		c0-10.8,9.1-19.9,19.9-19.9H313.1 M313.1,207.3h-27.7c-28,0-50.8,22.9-50.8,50.8V277c0,28,22.9,50.8,50.8,50.8h27.7
		c28,0,50.8-22.9,50.8-50.8v-18.9C363.9,230.2,341,207.3,313.1,207.3L313.1,207.3z"/>
</g>
<g>
	<path class="st0" d="M261.5,262.8L261.5,262.8c-3.3,0-5.9,2.7-5.9,5.9v75.4c0,3.3,2.7,5.9,5.9,5.9l0,0c3.3,0,5.9-2.7,5.9-5.9v-75.4
		C267.4,265.4,264.7,262.8,261.5,262.8z"/>
	<path class="st0" d="M261.5,262.8c-3.3,0-5.9,2.7-5.9,5.9v75.4c0,3.3,2.7,5.9,5.9,5.9s5.9-2.7,5.9-5.9v-75.4
		C267.4,265.4,264.7,262.8,261.5,262.8L261.5,262.8z"/>
</g>
<g>
	<path class="st0" d="M335.4,262L335.4,262c-3.3,0-5.9,2.7-5.9,5.9v75.4c0,3.3,2.7,5.9,5.9,5.9h0c3.3,0,5.9-2.7,5.9-5.9v-75.4
		C341.3,264.7,338.7,262,335.4,262z"/>
	<path class="st0" d="M335.4,262c-3.3,0-5.9,2.7-5.9,5.9v75.4c0,3.3,2.7,5.9,5.9,5.9s5.9-2.7,5.9-5.9v-75.4
		C341.3,264.7,338.7,262,335.4,262L335.4,262z"/>
</g>
<g>
	<rect x="284.4" y="337.9" width="28.2" height="119.2"/>
	<polygon points="329.5,321 267.5,321 267.5,474 329.5,474 329.5,321 	"/>
</g>
<g>
	<path class="st0" d="M299.3,350L299.3,350c-3.3,0-5.9,2.7-5.9,5.9v115.5c0,3.3,2.7,5.9,5.9,5.9l0,0c3.3,0,5.9-2.7,5.9-5.9V355.9
		C305.2,352.7,302.5,350,299.3,350z"/>
	<path class="st0" d="M299.3,350c-3.3,0-5.9,2.7-5.9,5.9v115.5c0,3.3,2.7,5.9,5.9,5.9s5.9-2.7,5.9-5.9V355.9
		C305.2,352.7,302.5,350,299.3,350L299.3,350z"/>
</g>
<g>
	<rect x="340.5" y="261" width="23" height="85"/>
	<polygon points="363.5,261 340.5,261 340.5,346 363.5,346 363.5,261 	"/>
</g>
<g>
	<rect x="235" y="262" width="23" height="85"/>
	<polygon points="258,262 235,262 235,347 258,347 258,262 	"/>
</g>
</svg>
