<?xml version="1.0" encoding="utf-8"?>
<!-- Generator: Adobe Illustrator 26.3.1, SVG Export Plug-In . SVG Version: 6.00 Build 0)  -->
<svg version="1.1" id="Layer_1" xmlns="http://www.w3.org/2000/svg" xmlns:xlink="http://www.w3.org/1999/xlink" x="0px" y="0px"
	 viewBox="0 0 600 600" style="enable-background:new 0 0 600 600;" xml:space="preserve">
<style type="text/css">
	.st0{fill:#FFFFFF;}
	.st1{fill:#35A754;}
	.st2{fill:#1D1D1B;stroke:#1D1D1B;stroke-miterlimit:10;}
	.st3{fill:#FFFFFF;stroke:#1D1D1B;stroke-width:5;stroke-miterlimit:10;}
	.st4{fill:#FFFFFF;stroke:#FFFFFF;stroke-linecap:round;stroke-linejoin:round;stroke-miterlimit:10;}
	.st5{fill:#FFFFFF;stroke:#FFFFFF;stroke-width:4;stroke-linecap:round;stroke-linejoin:round;stroke-miterlimit:10;}
	.st6{fill:#1D1D1B;stroke:#1D1D1B;stroke-linecap:round;stroke-linejoin:round;stroke-miterlimit:10;}
</style>
<g>
	<polygon class="st0" points="160.3,542 20.6,300 160.3,58 439.7,58 579.4,300 439.7,542 	"/>
	<path class="st1" d="M429.6,75.5L559.2,300L429.6,524.5H170.4L40.8,300L170.4,75.5H429.6 M449.8,40.5H150.2L0.4,300l149.8,259.5
		h299.6L599.6,300L449.8,40.5L449.8,40.5z"/>
</g>
<g>
	<path class="st2" d="M331.7,347.3H155.8c-11.9,0-21.6,9.7-21.6,21.6v0c0,11.9,9.7,21.6,21.6,21.6h175.9c11.9,0,21.6-9.7,21.6-21.6
		v0C353.3,357,343.6,347.3,331.7,347.3z"/>
	<path class="st2" d="M455.8,217.7l-40.5-79.1c0.5-5.3-2.6-10.4-7.8-12.3v0c-6.1-2.2-12.9,1.1-15.1,7.2L353,245
		c-0.8-26-3.4-87-11.2-93.5c-9.9-8.3-74.7-7.6-87.6-0.2c-12.4,7.1-39.6,97.6-41.7,104.7c-22,0.6-39.7,1.4-43.8,2.4
		c-12.5,3.3-25.8,32.7-27.2,36.6c-1.4,3.9-3.5,7.7-4.3,19.5c-0.8,11.8,3.5,29.2,29.4,29.1h154.3c15.1,0,27.8-10.6,31.2-24.7l54-153
		l31.3,61.1c1.1,2.1,2.9,3.7,4.9,4.6l-44.8,40.9c13.3,11.2,33.2,11.1,46.4-0.9c11.6-10.6,14.5-27.2,8.2-40.7
		C456.5,228.2,458.2,222.4,455.8,217.7z"/>
</g>
<circle class="st3" cx="446.7" cy="222.5" r="8.7"/>
<circle class="st3" cx="402.5" cy="135.8" r="11.6"/>
<g>
	<path class="st0" d="M285.7,243c-0.3,0-0.5-0.2-0.5-0.5c0-0.2-0.5-21.7-0.5-43.2c-0.1-43.7,1.7-44.6,2.5-45c1.6-0.8,7.8-1.1,13-1.1
		c10.7,0,30.1,1.2,35.2,5.8c7.1,6.4,8.4,80.8,8.5,83.9c0,0.1,0,0.3-0.1,0.4c-0.1,0.1-0.2,0.1-0.4,0.1
		C343.4,243.5,285.7,243,285.7,243z"/>
	<path class="st0" d="M300.2,153.8c12.5,0,30.2,1.5,34.9,5.6c7,6.3,8.3,83.6,8.3,83.6l-57.6-0.5c0,0-2-85.9,1.7-87.7
		C288.6,154.2,293.7,153.8,300.2,153.8 M300.2,152.8L300.2,152.8c-2.6,0-11.2,0.1-13.2,1.1c-1.1,0.5-2.8,1.4-2.8,45.4
		c0,21.5,0.5,43,0.5,43.2c0,0.5,0.5,1,1,1l57.6,0.5c0,0,0,0,0,0c0.3,0,0.5-0.1,0.7-0.3c0.2-0.2,0.3-0.5,0.3-0.7
		c0-0.2-0.3-19.6-1.5-39.5c-2.4-40.6-6-43.8-7.1-44.8C329.3,153,303.2,152.8,300.2,152.8L300.2,152.8z"/>
</g>
<path class="st4" d="M134.8,395.2c3.2-5.4,8-11.8,10-13.2s7.9-0.6,9.4-1.4c1.5-0.8,1.2-3.8,2.2-4.9s4.1-2.1,4.8-2.7
	c0.7-0.5,0.8-1.1,0.7-1.9c-0.1-0.8-1-1.4-1.4-1.9c-0.4-0.5-1.4-1.7-1.8-2.4c-0.4-0.7-0.9-1.5-0.9-1.5l2.1-1.3l2.8,0.5l0.9,0.1
	l1.8-1.3l1.8,0.7l2.7-0.6c0,0-0.2,1.9-0.5,2.4c-0.2,0.5-1.3,2.9-1.8,3.9c-0.5,1-0.7,0.9-0.8,1.6c-0.2,0.7,0.3,0.9,0.8,1.3
	c0.5,0.4,1.7,0.6,3.1,1.1s3.8,1.2,4.6,1.6c0.8,0.3,3,1,4.3,1.8s2.4,4.6,2.4,4.6l1.6,7.3l-16,8.1l-31.2,20.8
	C132.1,412.4,131.5,400.6,134.8,395.2z"/>
<path class="st4" d="M284.8,312.4c0,0-11.5-9.7-13.8-10.6c-2.3-0.9-7.8,1.4-9.5,0.9s-2.1-3.4-3.4-4.2c-1.2-0.8-4.5-1.1-5.4-1.4
	c-0.8-0.3-1.1-0.8-1.2-1.7s0.7-1.6,0.9-2.2c0.3-0.6,0.9-2,1.1-2.7c0.2-0.8,0.5-1.7,0.5-1.7l-2.3-0.7l-2.6,1.2l-0.8,0.3l-2.1-0.8
	l-1.6,1.1l-2.8,0.1c0,0,0.7,1.8,1.1,2.2c0.4,0.4,2,2.5,2.8,3.3c0.7,0.8,0.9,0.7,1.2,1.3c0.3,0.6-0.1,0.9-0.5,1.5
	c-0.4,0.5-1.5,1-2.7,1.8c-1.2,0.8-3.4,2.1-4.1,2.7c-0.7,0.5-2.7,1.7-3.7,2.8c-1.1,1.1-10.5,16.1-10.5,16.1l9.5-3.7l17.7,3.8
	l31.5-6.1L284.8,312.4z"/>
<path class="st4" d="M323.6,299.2c0,0,10.4-10.8,12.6-11.9s7.9,0.6,9.5,0c1.6-0.6,1.8-3.6,2.9-4.6s4.4-1.5,5.2-1.9s1-0.9,1-1.8
	c0-0.9-0.8-1.5-1.1-2.1c-0.3-0.6-1.1-1.9-1.4-2.6c-0.3-0.7-0.7-1.7-0.7-1.7l2.2-1l2.7,1l0.8,0.2l2-1l1.6,1l2.8-0.2
	c0,0-0.5,1.8-0.8,2.3c-0.3,0.5-1.8,2.7-2.4,3.6s-0.8,0.7-1,1.4s0.2,0.9,0.6,1.4c0.4,0.5,1.6,0.9,2.9,1.5c1.3,0.7,3.5,1.8,4.3,2.2
	c0.8,0.5,2.8,1.4,3.9,2.4s1.7,4.9,1.7,4.9l0.5,7.4l-17.1,5.5l-31.7-3L323.6,299.2z"/>
<path class="st5" d="M464.6,385.5c6.1-10.4,10.4-21.8,16.5-32.2c-0.6-0.7-1.2-1.3-1.6-1.7c-2.2-1.8-6.1-4.3-8.1-4.3
	c-2,0-21.6,7.3-25.5,4.3c-3.8-3-1.5-9-6.2-13.5c-2.8-1.9-11.5-4.8-13-8.6c-1.5-3.8-0.4-11.2-3.1-12.3c-2.7-1.1-27.9-10.9-31-14.2
	c-3.1-3.2-9.8-13.6-14.3-15.4s-13.6,1.8-16.8,3.1s-12.8,13.7-19.2,12.9c-6.5-0.8-19.9-11.7-19.9-11.7c-3.7-1.2-17.5-4.3-24.8-4.3
	s-17.3,3.3-23,8s-0.7,32-3.7,35.1c-3,3.1-15.9,4.4-19.9,3.7s-16.9-10.5-19.9-11.1c-3-0.6-8.4-2.1-12.4,0c-4.1,2.1-4.6,21.9-9.3,25.2
	c-4.7,3.3-16.9,6.1-20.5,8.6c-3.6,2.5-3.2,12.8-6.8,16c-3.6,3.2-23.6,5.8-27.9,8c-4.3,2.2-11.2,11.1-11.2,11.1s-9.9,20.1-5.6,23.4
	C140.6,418,343,418,447,417C452,406,458.5,395.8,464.6,385.5z"/>
<path class="st6" d="M444.7,417.6c14.9-19.2,23.9-42.1,38.4-61.5c-1.2-1.5-2.3-2.9-3.3-3.6c-2.2-1.8-6.1-4.3-8.1-4.3
	s-21.6,7.4-25.5,4.3c-3.8-3-1.5-9.1-6.2-13.7c-2.8-1.9-11.5-4.9-13-8.7c-1.5-3.8-0.4-11.3-3.1-12.4c-2.7-1.1-27.9-11-31-14.3
	c-3.1-3.3-9.8-13.8-14.3-15.5c-2-0.8-4.8-0.5-7.6,0.1c-2.9-1.9-11.1-6.1-11.6-6.6c-0.6-0.6-0.8-1.3-0.6-2.1s0.8-1.2,1.2-1.6
	c0.4-0.4,3.1-4.6,3.1-4.6l-2.4,0.4l-1.3-1l-1.8,1l-2.5-0.9l-1.9,0.5l2.3,3.7l0.3,1.4c0,0,0.3,2.1-0.3,2.9s-3.9,0.9-5,1.5
	c-1.1,0.5-2.2,4.6-3.3,5c-1.1,0.4-7.5,0-8.7,0.5c-1.2,0.5-5.6,4.2-6.8,5.2c-0.6,0.6-1.9,2.1-3,3.6c-3.4-2.4-6-4.6-6-4.6
	c-3.7-1.2-17.5-4.3-24.8-4.3c-7.3,0-17.3,3.3-23,8.1c-1.6,1.4-2.4,4.6-2.7,8.5c-1.1-0.7-2.1-1.3-2.5-1.4c-1.2-0.4-7.6,0.6-8.8,0.3
	c-1.2-0.3-2.6-4.3-3.7-4.7c-1.1-0.4-4.4-0.3-5.1-1c-0.7-0.7-0.6-2.8-0.6-2.8l0.1-1.4l2-3.9l-1.9-0.3l-2.4,1.1l-1.9-0.8l-1.2,1.1
	l-2.4-0.2c0,0,3,3.9,3.5,4.3s1.1,0.7,1.4,1.5c0.3,0.8,0.1,1.4-0.4,2.1c-0.6,0.7-10.7,7.1-11.8,8.4c-1.1,1.4-8.8,13.6-9.3,15.3
	c-0.1,0.2-0.1,0.6-0.1,1c-2.6-0.4-5.6-0.4-8.1,0.8c-4.1,2.1-4.6,22.1-9.3,25.5c-4.7,3.3-16.9,6.1-20.5,8.7c-3.6,2.6-3.2,13-6.8,16.1
	c-1.1,0.9-3.5,1.8-6.6,2.7c-3.8-1.5-8.6-3.3-9.1-3.7c-0.7-0.5-1-1.2-0.9-2s0.6-1.3,1-1.7c0.4-0.4,2.4-4.9,2.4-4.9l-2.3,0.7l-1.4-0.9
	l-1.7,1.2l-2.6-0.6l-1.8,0.7l2.8,3.3l0.4,1.3c0,0,0.6,2,0,2.9c-0.6,0.9-3.8,1.4-4.8,2.1s-1.6,4.8-2.6,5.4s-7.5,0.9-8.6,1.6
	s-5.1,4.9-6,6.1c-1,1.1-3.5,5.4-4.1,6.8c-0.7,1.3-2,5.1-2.2,6.4c-0.2,1.3-0.5,4-0.2,6.1c0.3,2.1,2.5,10.1,2.5,10.1s47.5,1.8,49.3,1
	c0.1,0,0.2-0.1,0.2-0.2c66.2,0.8,184.6,0.5,257.8-0.2C444.3,418.2,444.5,417.9,444.7,417.6z"/>
</svg>
