<?xml version="1.0" encoding="UTF-8"?><svg id="Layer_1" xmlns="http://www.w3.org/2000/svg" viewBox="0 0 406.35 420.33"><defs><style>.cls-1{stroke:#46b94d;}.cls-1,.cls-2,.cls-3,.cls-4{stroke-linecap:round;stroke-linejoin:round;}.cls-1,.cls-4{fill:none;stroke-width:5px;}.cls-5{fill:#fff;}.cls-2{stroke:#000;}.cls-3{stroke:#6da8d0;}.cls-3,.cls-6{fill:#6da8d0;}.cls-7{fill:#46b94d;}.cls-8{fill:#46ac4d;}.cls-4{stroke:#46ac4d;}</style></defs><g><path d="M389.68,118.58c47.08,109.57-9.56,239.41-119.74,284.01-8.83,3.69-18.99-.48-22.68-9.32-3.99-9.39,1.21-20.37,10.98-23.27,75.21-21.83,131.71-92.61,138.38-170.89,2.58-26.6-.21-53.98-8.2-80.06-.11-.35,.09-.73,.44-.84,.33-.1,.68,.07,.82,.38h0Z"/><polygon class="cls-2" points="228.85 394.43 271.56 416.03 257.01 355.72 228.85 394.43"/></g><g><path d="M164.84,397.69C49.23,368.45-19.42,244.53,12.16,129.95c2.44-9.26,11.93-14.78,21.18-12.34,9.88,2.54,15.44,13.34,11.81,22.86-28.4,72.99-6.55,160.88,51.55,213.76,19.55,18.23,42.98,32.65,68.55,42.17,.35,.13,.53,.52,.4,.86-.12,.33-.47,.5-.8,.42h0Z"/><polygon class="cls-2" points="43.62 102.28 .5 123.06 57.23 148.17 43.62 102.28"/></g><g><path d="M55.82,75.4C131.98-16.36,273.38-24.97,363.21,52.87c7.3,6.19,8.21,17.13,2.02,24.43-6.55,7.82-18.69,8.19-25.72,.81C285.86,21.06,197.13,2.94,124.38,32.6c-24.87,9.8-47.98,24.73-67.57,43.72-.27,.26-.69,.25-.95-.01-.24-.25-.25-.64-.03-.9h0Z"/><polygon class="cls-2" points="374.64 93.18 374.45 45.31 327.36 85.7 374.64 93.18"/></g><g><path class="cls-7" d="M227.1,146.79c10.28-30.42-9.25-69.46-47.43-91.36l2.1,4.84c-.12,.02-.24,.03-.36,.05-.54,.12-1.08,.32-1.61,.57l-.14-5.47c-2.73,4.75-5.14,9.55-7.28,14.35-.88,1.77-1.7,3.74-2.47,5.88-15.65,39.59-11.27,78.17,12.58,91.85l-.02-.92s.03,.01,.04,.02c.38,.2,.77,.38,1.17,.55l-1.18,.35c14.06,8.06,32.23,2.73,40.64-11.92l-.78,.23c.19-.24,.38-.48,.56-.72l.21,.5c1.14-1.99,2.13-4.04,2.97-6.13,.37-.87,.7-1.77,.98-2.68Z"/><path class="cls-1" d="M227.1,146.79c10.28-30.42-9.25-69.46-47.43-91.36l2.1,4.84c-.12,.02-.24,.03-.36,.05-.54,.12-1.08,.32-1.61,.57l-.14-5.47c-2.73,4.75-5.14,9.55-7.28,14.35-.88,1.77-1.7,3.74-2.47,5.88-15.65,39.59-11.27,78.17,12.58,91.85l-.02-.92s.03,.01,.04,.02c.38,.2,.77,.38,1.17,.55l-1.18,.35c14.06,8.06,32.23,2.73,40.64-11.92l-.78,.23c.19-.24,.38-.48,.56-.72l.21,.5c1.14-1.99,2.13-4.04,2.97-6.13,.37-.87,.7-1.77,.98-2.68Z"/></g><g><path class="cls-8" d="M218.3,197.46c.31-49.3-47.09-96.69-113.33-110l5.41,6.02c-.16,.09-.34,.16-.49,.25-.73,.44-1.42,.98-2.06,1.62l-2.86-7.89c-1.68,8.37-2.89,16.66-3.66,24.8-.36,2.7-.58,5.62-.66,8.71-3.72,65.44,21.45,119.71,62.9,128.03l-.48-1.33s.04,0,.07,.01c.65,.1,1.31,.18,1.97,.24l-1.55,1.08c24.35,4.89,48.19-11.69,53.29-37.07l-1.02,.71c.16-.44,.32-.88,.46-1.32l.55,.62c.7-3.47,1.14-6.95,1.35-10.42,.1-1.35,.14-2.7,.13-4.07Z"/><path class="cls-4" d="M218.3,197.46c.31-49.3-47.09-96.69-113.33-110l5.41,6.02c-.16,.09-.34,.16-.49,.25-.73,.44-1.42,.98-2.06,1.62l-2.86-7.89c-1.68,8.37-2.89,16.66-3.66,24.8-.36,2.7-.58,5.62-.66,8.71-3.72,65.44,21.45,119.71,62.9,128.03l-.48-1.33s.04,0,.07,.01c.65,.1,1.31,.18,1.97,.24l-1.55,1.08c24.35,4.89,48.19-11.69,53.29-37.07l-1.02,.71c.16-.44,.32-.88,.46-1.32l.55,.62c.7-3.47,1.14-6.95,1.35-10.42,.1-1.35,.14-2.7,.13-4.07Z"/></g><g><path class="cls-7" d="M294.67,131.04c-.1-2.49-.32-4.83-.64-7-.72-6.54-1.79-13.19-3.24-19.91l-2.21,6.38c-.52-.5-1.08-.93-1.67-1.28-.13-.07-.27-.13-.4-.2l4.28-4.91c-53.13,11.49-90.7,50.18-89.87,89.83,0,1.1,.05,2.19,.15,3.27,.21,2.79,.61,5.58,1.21,8.37l.44-.5c.12,.35,.25,.71,.39,1.06l-.83-.56c4.4,20.36,23.77,33.41,43.31,29.19l-1.26-.85c.53-.06,1.06-.13,1.58-.22,.02,0,.03,0,.05-.01l-.37,1.08c33.25-7.19,52.84-51.14,49.08-103.74Z"/><path class="cls-1" d="M294.67,131.04c-.1-2.49-.32-4.83-.64-7-.72-6.54-1.79-13.19-3.24-19.91l-2.21,6.38c-.52-.5-1.08-.93-1.67-1.28-.13-.07-.27-.13-.4-.2l4.28-4.91c-53.13,11.49-90.7,50.18-89.87,89.83,0,1.1,.05,2.19,.15,3.27,.21,2.79,.61,5.58,1.21,8.37l.44-.5c.12,.35,.25,.71,.39,1.06l-.83-.56c4.4,20.36,23.77,33.41,43.31,29.19l-1.26-.85c.53-.06,1.06-.13,1.58-.22,.02,0,.03,0,.05-.01l-.37,1.08c33.25-7.19,52.84-51.14,49.08-103.74Z"/></g><g><path class="cls-8" d="M380.45,178.97c1.78-10.9,3.04-22.13,3.72-33.63l-6.47,9.36c-.62-1.05-1.34-2-2.15-2.82-.17-.18-.35-.35-.54-.51l9.16-6.02c-91.23-5.37-169.59,40.16-186.52,104.64-.67,2.34-1.2,4.7-1.59,7.07-.81,4.28-1.36,8.63-1.62,13.05l.94-.62c.04,.63,.09,1.26,.15,1.9l-1.09-1.28c-2.06,35.07,23.49,65.05,57.14,67.03l-1.66-1.95c.89,.15,1.77,.27,2.67,.37,.03,0,.06,0,.09,0l-1.09,1.58c57.21,3.37,108.91-59.04,126.65-146.07,1-4.25,1.75-8.3,2.22-12.1Z"/><path class="cls-4" d="M380.45,178.97c1.78-10.9,3.04-22.13,3.72-33.63l-6.47,9.36c-.62-1.05-1.34-2-2.15-2.82-.17-.18-.35-.35-.54-.51l9.16-6.02c-91.23-5.37-169.59,40.16-186.52,104.64-.67,2.34-1.2,4.7-1.59,7.07-.81,4.28-1.36,8.63-1.62,13.05l.94-.62c.04,.63,.09,1.26,.15,1.9l-1.09-1.28c-2.06,35.07,23.49,65.05,57.14,67.03l-1.66-1.95c.89,.15,1.77,.27,2.67,.37,.03,0,.06,0,.09,0l-1.09,1.58c57.21,3.37,108.91-59.04,126.65-146.07,1-4.25,1.75-8.3,2.22-12.1Z"/></g><g><path class="cls-7" d="M235.36,288.81l-1.12,1.26c.07-.63,.14-1.26,.19-1.89l.93,.64c-.16-4.43-.61-8.8-1.32-13.1-.34-2.38-.82-4.76-1.43-7.12-15.49-64.94-92.9-112.29-184.36-108.98l9.03,6.24c-.19,.16-.37,.33-.55,.5-.83,.81-1.56,1.74-2.21,2.78l-6.27-9.52c.42,11.53,1.43,22.8,2.96,33.75,.38,3.81,1.04,7.89,1.95,12.16,15.79,87.52,66.13,151.17,123.48,149.1l-1.06-1.6s.06,0,.09,0c.89-.07,1.79-.18,2.68-.31l-1.71,1.92c33.73-1.22,59.99-30.65,58.72-65.8Z"/><path class="cls-1" d="M235.36,288.81l-1.12,1.26c.07-.63,.14-1.26,.19-1.89l.93,.64c-.16-4.43-.61-8.8-1.32-13.1-.34-2.38-.82-4.76-1.43-7.12-15.49-64.94-92.9-112.29-184.36-108.98l9.03,6.24c-.19,.16-.37,.33-.55,.5-.83,.81-1.56,1.74-2.21,2.78l-6.27-9.52c.42,11.53,1.43,22.8,2.96,33.75,.38,3.81,1.04,7.89,1.95,12.16,15.79,87.52,66.13,151.17,123.48,149.1l-1.06-1.6s.06,0,.09,0c.89-.07,1.79-.18,2.68-.31l-1.71,1.92c33.73-1.22,59.99-30.65,58.72-65.8Z"/></g><path class="cls-5" d="M203.62,89.9c14.14,27.47,15.87,60.74,6.2,90.17-.6,1.84-2.58,2.84-4.42,2.23-1.84-.6-2.84-2.58-2.23-4.42,11.53-27.63,12.23-60.09,.45-87.99h0Z"/><path class="cls-5" d="M256.11,128.02c-23.07,23.72-37.6,57.29-33.91,90.32,.43,5.23-7.16,6.12-7.92,.89-1.34-34.81,16.15-68.66,41.83-91.21h0Z"/><path class="cls-5" d="M127.33,119.09c39.75,15.03,71.33,47.07,90.84,84.51,1.14,2.21,.28,4.93-1.93,6.07-2.21,1.14-4.93,.28-6.07-1.93-16.18-37.63-45.12-71.3-82.84-88.65h0Z"/><path class="cls-5" d="M319.75,183.5c-41.68,28.44-72.63,73.41-77.93,123.8-.48,4.68-4.66,8.08-9.34,7.6-4.68-.48-8.08-4.66-7.6-9.34,10.7-52.43,48.38-97.49,94.87-122.06h0Z"/><path class="cls-5" d="M102.79,182.39c60.49,22.99,117.3,68.36,135.91,132.67,1.29,4.52-1.32,9.23-5.84,10.52-4.77,1.39-9.78-1.7-10.69-6.58-12.38-62.35-63.92-109.66-119.37-136.62h0Z"/><path class="cls-5" d="M164.8,109.4c58.59,70.44,84.35,164.47,76.46,255.71-.61,6.88-6.68,11.97-13.57,11.36-7.3-.61-12.56-7.53-11.21-14.72,15.75-85.84-1.61-179.77-51.69-252.35h0Z"/><g><path class="cls-6" d="M389.68,122.38c47.08,109.57-9.56,239.41-119.74,284.01-8.83,3.69-18.99-.48-22.68-9.32-3.99-9.39,1.21-20.37,10.98-23.27,75.21-21.83,131.71-92.61,138.38-170.89,2.58-26.6-.21-53.98-8.2-80.06-.11-.35,.09-.73,.44-.84,.33-.1,.68,.07,.82,.38h0Z"/><polygon class="cls-3" points="228.85 398.23 271.56 419.83 257.01 359.53 228.85 398.23"/></g><g><path class="cls-6" d="M166.84,400.49C51.23,371.26-17.42,247.34,14.16,132.75c2.44-9.26,11.93-14.78,21.18-12.34,9.88,2.54,15.44,13.34,11.81,22.86-28.4,72.99-6.55,160.88,51.55,213.76,19.55,18.23,42.98,32.65,68.55,42.17,.35,.13,.53,.52,.4,.86-.12,.33-.47,.5-.8,.42h0Z"/><polygon class="cls-3" points="45.62 105.08 2.5 125.86 59.23 150.97 45.62 105.08"/></g><g><path class="cls-6" d="M56.82,78.21C132.98-13.56,274.38-22.16,364.21,55.67c7.3,6.19,8.21,17.13,2.02,24.43-6.55,7.82-18.69,8.19-25.72,.81C286.86,23.86,198.13,5.74,125.38,35.41c-24.87,9.8-47.98,24.73-67.57,43.72-.27,.26-.69,.25-.95-.01-.24-.25-.25-.64-.03-.9h0Z"/><polygon class="cls-3" points="375.64 95.98 375.45 48.12 328.36 88.51 375.64 95.98"/></g></svg>