<?xml version="1.0" encoding="utf-8"?>
<!-- Generator: Adobe Illustrator 26.3.1, SVG Export Plug-In . SVG Version: 6.00 Build 0)  -->
<svg version="1.1" id="Layer_1" xmlns="http://www.w3.org/2000/svg" xmlns:xlink="http://www.w3.org/1999/xlink" x="0px" y="0px"
	 viewBox="0 0 500 500" style="enable-background:new 0 0 500 500;" xml:space="preserve">
<style type="text/css">
	.st0{fill:none;}
	.st1{fill:#FFFFFF;stroke:#000000;stroke-width:5;stroke-linecap:round;stroke-linejoin:round;stroke-miterlimit:10;}
</style>
<g>
	<polygon class="st0" points="301.3,83.3 328.9,41.5 301.3,83.3 301.3,83.3 301.3,475 301.5,83.3 	"/>
	<polygon class="st1" points="301.3,83.3 150.2,83.3 150.2,475 301.3,475 301.3,83.3 	"/>
	<polygon class="st1" points="349,66.1 301.5,83.3 301.3,475 349.8,450.8 	"/>
	<polygon class="st1" points="328.9,41.5 177.9,41.5 150.2,83.3 301.3,83.3 	"/>
	<polygon class="st1" points="301.5,83.3 301.5,83.3 349,66 349,66.1 349.2,66 328.9,41.5 301.3,83.3 	"/>
	<polygon class="st1" points="301.5,83.3 301.5,83.3 349,66.1 349,66 	"/>
	<polygon class="st1" points="327.3,17.8 177.7,17.8 177.7,41.5 177.9,41.5 327.3,41.5 	"/>
</g>
</svg>
