<?xml version="1.0" encoding="utf-8"?>
<!-- Generator: Adobe Illustrator 26.3.1, SVG Export Plug-In . SVG Version: 6.00 Build 0)  -->
<svg version="1.1" id="Layer_1" xmlns="http://www.w3.org/2000/svg" xmlns:xlink="http://www.w3.org/1999/xlink" x="0px" y="0px"
	 viewBox="0 0 500 500" style="enable-background:new 0 0 500 500;" xml:space="preserve">
<style type="text/css">
	.st0{fill:#FFFFFF;stroke:#000000;stroke-width:5;stroke-linecap:round;stroke-linejoin:round;stroke-miterlimit:10;}
</style>
<g>
	<path class="st0" d="M364.7,278.2c0-49.3,31.4-91.3,75.2-107.2c-23.9-42.2-71.6-92.9-106.8-94.1c-35.2-1.2-49.9,9.6-79.9,9.6
		c-31.4,0-51.7-13.1-83-10.5c-31.3,2.6-85.9,53.3-110.1,97.2c40.9,17.3,69.5,57.8,69.5,104.9c0,47.2-28.7,87.6-69.5,104.9
		c23.8,43,74.2,96.1,107.5,96.1s51.6-10.5,83-10.5c31.5,0,50.3,10.5,83,10.5s82.4-51.9,106.2-93.9
		C396,369.5,364.7,327.5,364.7,278.2z"/>
	<path class="st0" d="M252.3,84.5c1.4-1.5,12.9-54.1,12.9-58.2s-9.6-8.2-14.1-2.8c-4.4,5.4-4.9,58.7-2.7,60.6
		C250.7,85.9,250.9,86,252.3,84.5z"/>
</g>
</svg>
