<?xml version="1.0" encoding="utf-8"?>
<!-- Generator: Adobe Illustrator 26.3.1, SVG Export Plug-In . SVG Version: 6.00 Build 0)  -->
<svg version="1.1" id="Layer_1" xmlns="http://www.w3.org/2000/svg" xmlns:xlink="http://www.w3.org/1999/xlink" x="0px" y="0px"
	 viewBox="0 0 300 300" style="enable-background:new 0 0 300 300;" xml:space="preserve">
<style type="text/css">
	.st0{fill:#FFFFFF;}
	.st1{fill:#FFFFFF;stroke:#000000;stroke-width:1.0572;stroke-miterlimit:10;}
</style>
<g>
	<rect x="0.5" y="0.5" class="st0" width="299" height="299"/>
	<path d="M299,1v298H1V1H299 M300,0H0v300h300V0L300,0z"/>
</g>
<g>
	
		<ellipse transform="matrix(0.9239 -0.3827 0.3827 0.9239 -16.2442 62.8526)" class="st0" cx="149.9" cy="72.3" rx="52.1" ry="52.1"/>
	<path d="M149.9,20.8c28.4,0,51.5,23.1,51.5,51.5s-23.1,51.5-51.5,51.5s-51.5-23.1-51.5-51.5S121.5,20.8,149.9,20.8 M149.9,19.5
		c-29.1,0-52.8,23.6-52.8,52.8s23.6,52.8,52.8,52.8s52.8-23.6,52.8-52.8S179,19.5,149.9,19.5L149.9,19.5z"/>
</g>
<path class="st1" d="M64,300l0.3-47.5c0.5-70.6,39.3-127.5,87-127.5h0c46.6,0,84.5,56,84.5,125.1V300H64z"/>
</svg>
