<?xml version="1.0" encoding="utf-8"?>
<!-- Generator: Adobe Illustrator 26.3.1, SVG Export Plug-In . SVG Version: 6.00 Build 0)  -->
<svg version="1.1" id="Layer_1" xmlns="http://www.w3.org/2000/svg" xmlns:xlink="http://www.w3.org/1999/xlink" x="0px" y="0px"
	 viewBox="0 0 500 500" style="enable-background:new 0 0 500 500;" xml:space="preserve">
<style type="text/css">
	.st0{fill:#FFFFFF;stroke:#000000;stroke-width:5;stroke-linecap:round;stroke-linejoin:round;stroke-miterlimit:10;}
</style>
<g>
	<path class="st0" d="M35.9,95.3c0-0.3-0.1-0.6-0.1-0.8C34.6,94.8,34.8,95.1,35.9,95.3z"/>
	<path class="st0" d="M35.9,95.3c4.9,30,10.5,151,18.7,167.6c-9.9,22.6-13.2,154.4-32.6,166.2c-10.2,5,328.2-3.1,328.2-3.1V98.8
		C350.3,98.8,54.8,99.5,35.9,95.3z M253.3,132.9c0,6.6-5.4,12-12,12h-92.4c-6.6,0-12-5.4-12-12v0c0-6.6,5.4-12,12-12h92.4
		C247.9,120.9,253.3,126.3,253.3,132.9L253.3,132.9z"/>
</g>
<path class="st0" d="M389.6,103.8V53.3h-47v63.3l-61,72.2v232.9c0,5,4,9,9,9h148.8c5,0,9-4,9-9V173.6L389.6,103.8z M431.6,244.6
	h-15.2V189l-27-32l12.2-10.3l30,35.5V244.6z"/>
</svg>
