<?xml version="1.0" encoding="utf-8"?>
<!-- Generator: Adobe Illustrator 26.3.1, SVG Export Plug-In . SVG Version: 6.00 Build 0)  -->
<svg version="1.1" id="Lag_1" xmlns="http://www.w3.org/2000/svg" xmlns:xlink="http://www.w3.org/1999/xlink" x="0px" y="0px"
	 viewBox="0 0 500 500" style="enable-background:new 0 0 500 500;" xml:space="preserve">
<style type="text/css">
	.st0{fill:#FFFFFF;stroke:#000000;stroke-width:5;stroke-linecap:round;stroke-linejoin:round;stroke-miterlimit:10;}
</style>
<path class="st0" d="M454.7,458.9c0,0-364.9-0.3-378.3-7.4c-13.4-7.2-52.1-82.3-54.4-95.2c-2.3-12.9,6.2-102,13.6-113.7
	c7.4-11.8,88.3-87.1,98.9-95.2c10.6-8.1,98.4-35.6,103.9-39.6c5.4-4,7.9-8.7,7.4-14.8c-0.5-6.1-4.6-10.2-7.4-13.6
	C235.5,76,221,41.1,221,41.1l17.3,6.2l11.1-6.2l12.4,9.9l19.9-3.7l13.5,6.2L273,78.1l-3.7,9.9c0,0-5.2,15.5-1.2,22.3
	c4,6.7,28.5,12.1,35.9,17.3c7.3,5.2,10.5,37.4,18.5,42s57.1,9.2,65.5,14.8c8.4,5.6,37.3,39.2,44.5,48.2c7.2,9,25,42.7,29.7,53.2
	c4.7,10.5,13.7,39.5,14.8,49.5c1.1,10,2.7,30.9,0,47C474.3,398.4,454.7,458.9,454.7,458.9z"/>
</svg>
